<svg width="21" height="20" viewBox="0 0 21 20" fill="none" xmlns="http://www.w3.org/2000/svg">
  <path fill-rule="evenodd" clip-rule="evenodd" d="M10.5 20C16.0228 20 20.5 15.5228 20.5 10C20.5 4.47715 16.0228 0 10.5 0C4.97715 0 0.5 4.47715 0.5 10C0.5 15.5228 4.97715 20 10.5 20ZM16.0588 7.50027C16.3351 7.19167 16.3089 6.71752 16.0003 6.44123C15.6917 6.16493 15.2175 6.19113 14.9412 6.49973L11.5721 10.2629C10.8894 11.0254 10.4296 11.5363 10.0365 11.8667C9.66207 12.1814 9.44213 12.25 9.25 12.25C9.05787 12.25 8.83794 12.1814 8.46348 11.8667C8.0704 11.5363 7.61064 11.0254 6.92794 10.2629L6.05877 9.29209C5.78248 8.98349 5.30833 8.9573 4.99973 9.23359C4.69113 9.50988 4.66493 9.98403 4.94123 10.2926L5.84753 11.3049C6.48338 12.0152 7.01374 12.6076 7.49835 13.0149C8.01099 13.4458 8.56393 13.75 9.25 13.75C9.93607 13.75 10.489 13.4458 11.0016 13.0149C11.4863 12.6076 12.0166 12.0152 12.6525 11.3049L16.0588 7.50027Z" fill="#1CA345" />
</svg>
