<svg width="68.000000" height="68.000000" viewBox="0 0 68 68" fill="none" xmlns="http://www.w3.org/2000/svg" xmlns:xlink="http://www.w3.org/1999/xlink">
	<desc>
			Created with Pixso.
	</desc>
	<defs>
		<clipPath id="clip1_66">
			<rect id="fi_2833391" width="68.000000" height="68.000000" fill="white" fill-opacity="0"/>
		</clipPath>
		<linearGradient id="paint_linear_1_67_0" x1="41.009506" y1="14.909912" x2="41.009506" y2="66.937675" gradientUnits="userSpaceOnUse">
			<stop stop-color="#FDEA44"/>
			<stop offset="1.000000" stop-color="#FDB344"/>
		</linearGradient>
	</defs>
	<rect id="fi_2833391" width="68.000000" height="68.000000" fill="#FFFFFF" fill-opacity="0"/>
	<g clip-path="url(#clip1_66)">
		<path id="Vector" d="M66.2623 28.2114C65.7676 29.3762 65.0465 30.4312 64.141 31.3149L61.8875 33.575L48.3639 20.0461L50.6185 17.7925C51.5026 16.887 52.5574 16.166 53.7222 15.6711C54.8868 15.1765 56.1382 14.9177 57.4036 14.9102C58.6691 14.9026 59.9233 15.146 61.094 15.627C62.2645 16.1077 63.328 16.8159 64.2229 17.7107C65.1177 18.6055 65.8259 19.6689 66.3068 20.8396C66.7875 22.0103 67.0311 23.2646 67.0234 24.53C67.0159 25.7954 66.7572 27.0466 66.2623 28.2114ZM61.8875 33.575L63.3898 35.0774C63.9873 35.675 64.323 36.4856 64.323 37.3308C64.323 38.176 63.9873 38.9868 63.3898 39.5845L52.8711 50.1033C52.6707 50.2966 52.4022 50.4038 52.1237 50.4014C51.8451 50.3989 51.5786 50.2874 51.3816 50.0903C51.1846 49.8933 51.0729 49.6267 51.0704 49.3481C51.068 49.0696 51.1752 48.8013 51.3687 48.6008L61.8875 38.082C62.0867 37.8828 62.1985 37.6125 62.1985 37.3308C62.1985 37.0491 62.0867 36.7791 61.8875 36.5796L60.385 35.0774L61.8875 33.575ZM46.8616 21.5486L19.8964 48.5137C19.6971 48.7129 19.5853 48.9832 19.5853 49.2649C19.5853 49.5466 19.6971 49.8169 19.8964 50.0161L31.9175 62.0371C32.1167 62.2363 32.387 62.3484 32.6687 62.3484C32.9504 62.3484 33.2206 62.2363 33.4198 62.0371L60.385 35.072L46.8616 21.5486ZM19.1274 52.4944C19.3278 52.5374 19.5114 52.637 19.6562 52.7817L29.1519 62.2815C29.2948 62.4268 29.3931 62.6099 29.4349 62.8091C29.4768 63.0085 29.4606 63.2156 29.3879 63.406C29.3154 63.5962 29.1897 63.7617 29.0258 63.8826C28.8618 64.0037 28.6666 64.0747 28.4633 64.0879L18.7786 64.6584L16.8098 66.6262C16.6106 66.8254 16.3403 66.9375 16.0585 66.9377C15.7766 66.9377 15.5062 66.8259 15.3069 66.6267C15.1075 66.4275 14.9955 66.1572 14.9954 65.8752C14.9952 65.5935 15.1072 65.3232 15.3064 65.1238L17.2762 63.155L17.8447 53.4714C17.8567 53.2668 17.9275 53.0703 18.0486 52.905C18.1697 52.74 18.3359 52.6133 18.5273 52.5405C18.7188 52.4675 18.9271 52.4517 19.1274 52.4944Z" fill="url(#paint_linear_1_67_0)" fill-opacity="1.000000" fill-rule="evenodd"/>
		<path id="Vector" d="M38.25 1.0625L16.6356 1.0625C15.9376 1.06055 15.2462 1.19702 14.6013 1.46387C13.9564 1.73096 13.3708 2.12329 12.8785 2.61792L2.61902 12.8796C2.12427 13.3718 1.73181 13.957 1.46472 14.6018C1.19751 15.2463 1.06079 15.9377 1.0625 16.6355L1.0625 51C1.0625 51.8455 1.39832 52.6562 1.99609 53.2539C2.59387 53.8518 3.40466 54.1875 4.25 54.1875L38.25 54.1875C39.0953 54.1875 39.9061 53.8518 40.5039 53.2539C41.1017 52.6562 41.4375 51.8455 41.4375 51L41.4375 4.25C41.4375 3.40454 41.1017 2.59399 40.5039 1.99609C39.9061 1.39844 39.0953 1.0625 38.25 1.0625ZM13.8125 4.68994L13.8125 13.8125L4.68994 13.8125L13.8125 4.68994ZM39.3125 51C39.3125 51.2817 39.2006 51.552 39.0013 51.7512C38.802 51.9507 38.5319 52.0625 38.25 52.0625L4.25 52.0625C3.96826 52.0625 3.698 51.9507 3.49866 51.7512C3.29944 51.552 3.1875 51.2817 3.1875 51L3.1875 16.6355C3.18958 16.4004 3.21814 16.1663 3.27246 15.9375L14.875 15.9375C15.1569 15.9375 15.427 15.8257 15.6263 15.6262C15.8256 15.427 15.9375 15.1567 15.9375 14.875L15.9375 3.27051C16.1664 3.21704 16.4005 3.18921 16.6356 3.1875L38.25 3.1875C38.5319 3.1875 38.802 3.29956 39.0013 3.49878C39.2006 3.698 39.3125 3.96826 39.3125 4.25L39.3125 51Z" fill="#000000" fill-opacity="1.000000" fill-rule="nonzero"/>
		<path id="Vector" d="M34 9.5625L21.25 9.5625C20.9683 9.5625 20.698 9.67456 20.4987 9.87378C20.2994 10.073 20.1875 10.3433 20.1875 10.625C20.1875 10.9067 20.2994 11.177 20.4987 11.3762C20.698 11.5754 20.9683 11.6875 21.25 11.6875L34 11.6875C34.2817 11.6875 34.552 11.5754 34.7513 11.3762C34.9506 11.177 35.0625 10.9067 35.0625 10.625C35.0625 10.3433 34.9506 10.073 34.7513 9.87378C34.552 9.67456 34.2817 9.5625 34 9.5625Z" fill="#000000" fill-opacity="1.000000" fill-rule="nonzero"/>
		<path id="Vector" d="M34 18.0625L21.25 18.0625C20.9683 18.0625 20.698 18.1746 20.4987 18.3738C20.2994 18.573 20.1875 18.8433 20.1875 19.125C20.1875 19.4067 20.2994 19.677 20.4987 19.8762C20.698 20.0754 20.9683 20.1875 21.25 20.1875L34 20.1875C34.2817 20.1875 34.552 20.0754 34.7513 19.8762C34.9506 19.677 35.0625 19.4067 35.0625 19.125C35.0625 18.8433 34.9506 18.573 34.7513 18.3738C34.552 18.1746 34.2817 18.0625 34 18.0625Z" fill="#000000" fill-opacity="1.000000" fill-rule="nonzero"/>
		<path id="Vector" d="M34 26.5625L8.5 26.5625C8.21826 26.5625 7.948 26.6746 7.74866 26.8738C7.54944 27.073 7.4375 27.3433 7.4375 27.625C7.4375 27.9067 7.54944 28.177 7.74866 28.3762C7.948 28.5754 8.21826 28.6875 8.5 28.6875L34 28.6875C34.2817 28.6875 34.552 28.5754 34.7513 28.3762C34.9506 28.177 35.0625 27.9067 35.0625 27.625C35.0625 27.3433 34.9506 27.073 34.7513 26.8738C34.552 26.6746 34.2817 26.5625 34 26.5625Z" fill="#000000" fill-opacity="1.000000" fill-rule="nonzero"/>
		<path id="Vector" d="M34 35.0625L8.5 35.0625C8.21826 35.0625 7.948 35.1746 7.74866 35.3738C7.54944 35.573 7.4375 35.8433 7.4375 36.125C7.4375 36.4067 7.54944 36.677 7.74866 36.8762C7.948 37.0754 8.21826 37.1875 8.5 37.1875L34 37.1875C34.2817 37.1875 34.552 37.0754 34.7513 36.8762C34.9506 36.677 35.0625 36.4067 35.0625 36.125C35.0625 35.8433 34.9506 35.573 34.7513 35.3738C34.552 35.1746 34.2817 35.0625 34 35.0625Z" fill="#000000" fill-opacity="1.000000" fill-rule="nonzero"/>
		<path id="Vector" d="M22.3125 42.5002L20.5615 42.5002C19.9319 42.4976 19.3141 42.6716 18.7784 43.0024C18.2428 43.3335 17.8107 43.8081 17.5312 44.3723C17.4954 44.4438 17.4413 44.5046 17.3745 44.5491C17.3077 44.5933 17.2306 44.6191 17.1506 44.6243C17.0707 44.6294 16.9908 44.6135 16.9189 44.5784C16.847 44.543 16.7856 44.4895 16.7407 44.4233C16.6982 44.3618 16.6719 44.2908 16.6638 44.2166C16.6559 44.1423 16.6666 44.0674 16.6951 43.9983C16.8917 43.5061 16.9519 42.9697 16.8693 42.446C16.7867 41.9226 16.5643 41.4309 16.2257 41.0232C15.8871 40.6152 15.4447 40.3064 14.9452 40.1289C14.4457 39.9514 13.9076 39.9121 13.3875 40.0149C12.6416 40.1641 11.9351 40.4673 11.313 40.905C10.691 41.343 10.1671 41.9058 9.77502 42.5576L7.58948 46.2029C7.45032 46.4441 7.4115 46.7305 7.48132 47C7.55115 47.2695 7.72388 47.501 7.96265 47.6443C8.20129 47.7878 8.48682 47.8318 8.75757 47.7668C9.02832 47.7019 9.26282 47.5334 9.41052 47.2974L11.5983 43.6509C11.837 43.2529 12.1564 42.9094 12.5356 42.6421C12.9149 42.3748 13.3458 42.1897 13.8008 42.0984C13.9456 42.0696 14.0956 42.0801 14.2347 42.1294C14.3739 42.1787 14.4973 42.2646 14.5917 42.3782C14.686 42.4917 14.748 42.6287 14.7709 42.7744C14.7938 42.9204 14.777 43.0696 14.722 43.2068C14.4734 43.8259 14.474 44.5176 14.7238 45.1365C14.9735 45.7554 15.4531 46.2534 16.062 46.5269C16.6708 46.8 17.3618 46.8271 17.9902 46.6023C18.6187 46.3777 19.1356 45.9185 19.4331 45.321C19.5372 45.1111 19.6982 44.9346 19.8977 44.8115C20.0972 44.6885 20.3271 44.624 20.5615 44.6252L22.3125 44.6252C22.5944 44.6252 22.8645 44.5132 23.0638 44.314C23.2631 44.1147 23.375 43.8445 23.375 43.5627C23.375 43.2808 23.2631 43.0105 23.0638 42.8113C22.8645 42.6121 22.5944 42.5002 22.3125 42.5002Z" fill="#000000" fill-opacity="1.000000" fill-rule="nonzero"/>
	</g>
</svg>
