<svg width="68.000000" height="68.000000" viewBox="0 0 68 68" fill="none" xmlns="http://www.w3.org/2000/svg" xmlns:xlink="http://www.w3.org/1999/xlink">
	<desc>
			Created with Pixso.
	</desc>
	<defs>
		<clipPath id="clip1_49">
			<rect id="fi_5262395" width="68.000000" height="68.000000" fill="white" fill-opacity="0"/>
		</clipPath>
		<linearGradient id="paint_linear_1_51_0" x1="46.840363" y1="25.149414" x2="46.840363" y2="65.343567" gradientUnits="userSpaceOnUse">
			<stop stop-color="#FDEA44"/>
			<stop offset="1.000000" stop-color="#FDB344"/>
		</linearGradient>
	</defs>
	<rect id="fi_5262395" width="68.000000" height="68.000000" fill="#FFFFFF" fill-opacity="0"/>
	<g clip-path="url(#clip1_49)">
		<path id="Vector" d="M35.675 28.5364C38.98 26.3281 42.8656 25.1494 46.8404 25.1494C52.1705 25.1494 57.2822 27.2668 61.0511 31.0356C64.8201 34.8047 66.9374 39.9163 66.9374 45.2463C66.9374 49.2212 65.7588 53.1069 63.5505 56.4119C61.3422 59.7168 58.2035 62.2927 54.5312 63.8137C50.8589 65.335 46.8181 65.7329 42.9196 64.9575C39.0212 64.1819 35.4402 62.2678 32.6296 59.4573C29.819 56.6467 27.9049 53.0657 27.1295 49.1672C26.354 45.2688 26.752 41.228 28.2731 37.5557C29.7942 33.8833 32.3701 30.7446 35.675 28.5364ZM37.1292 59.7788C40.0026 61.6997 43.381 62.7253 46.8373 62.7263C51.4705 62.7153 55.9108 60.8699 59.187 57.5935C62.4631 54.3174 64.3084 49.877 64.3193 45.2439C64.3182 41.7876 63.2924 38.4092 61.3716 35.5359C59.4508 32.6626 56.7211 30.4231 53.5277 29.1011C50.3343 27.7788 46.8206 27.4331 43.4308 28.1077C40.0411 28.7825 36.9274 30.4468 34.4835 32.8909C32.0396 35.3347 30.3752 38.4485 29.7007 41.8384C29.0262 45.2283 29.3719 48.7419 30.6942 51.9353C32.0164 55.1284 34.2558 57.8582 37.1292 59.7788ZM46.9597 35.6558C48.3948 35.6472 49.8065 36.0198 51.0504 36.7356C52.2943 37.4514 53.3257 38.4849 54.0392 39.73L61.1738 39.73C60.0573 36.8354 58.0904 34.3467 55.5321 32.5913C52.9738 30.8362 49.944 29.8967 46.8414 29.8967C43.7389 29.8967 40.7091 30.8362 38.1508 32.5913C35.5925 34.3467 33.6256 36.8354 32.5091 39.73L39.8797 39.73C40.5933 38.4849 41.6248 37.4514 42.8688 36.7356C44.1128 36.0198 45.5245 35.6472 46.9597 35.6558ZM53.3969 41.855C53.1956 41.855 52.9984 41.7976 52.8283 41.6899C52.6582 41.5823 52.5222 41.4285 52.4361 41.2463C51.9449 40.2097 51.1695 39.3335 50.2 38.72C49.2305 38.1064 48.1067 37.7808 46.9594 37.7808C45.8121 37.7808 44.6884 38.1064 43.7189 38.72C42.7494 39.3335 41.9739 40.2097 41.4827 41.2463C41.3966 41.4285 41.2606 41.5823 41.0905 41.6899C40.9204 41.7976 40.7233 41.855 40.5219 41.855L31.8657 41.855C31.6158 42.9673 31.4898 44.1038 31.4901 45.2439C31.4893 45.7837 31.5173 46.3235 31.5742 46.8604L41.1128 46.8604C41.2829 46.8694 41.4491 46.915 41.6 46.9941C41.7509 47.0732 41.8829 47.1841 41.987 47.3191C42.4923 48.0486 43.1535 48.6567 43.9226 49.0996C44.0746 49.2039 44.2014 49.3408 44.2938 49.5002C44.3862 49.6597 44.442 49.8376 44.457 50.0215L44.457 60.4165C46.1163 60.6765 47.8072 60.6621 49.4618 60.3735L49.4618 50.0215C49.4744 49.8372 49.5291 49.6582 49.6218 49.4983C49.7144 49.3384 49.8425 49.2021 49.9962 49.0996C50.7846 48.6304 51.4666 48.002 51.9987 47.2546C52.1003 47.1384 52.2239 47.0437 52.3626 46.9761C52.5012 46.9082 52.652 46.8689 52.806 46.8604L62.1101 46.8604C62.167 46.3235 62.195 45.7837 62.1942 45.2439C62.1945 44.1038 62.0686 42.9673 61.8186 41.855L53.3969 41.855ZM46.9597 47.7915C46.1798 47.7917 45.4174 47.5605 44.769 47.1272C44.1205 46.6941 43.6151 46.0781 43.3166 45.3577C43.0181 44.6372 42.9399 43.8445 43.092 43.0796C43.2441 42.3145 43.6196 41.6121 44.171 41.0605C44.7224 40.509 45.425 40.1333 46.1899 39.9812C46.9548 39.8289 47.7476 39.907 48.4682 40.2053C49.1887 40.5039 49.8046 41.0093 50.2379 41.6575C50.6712 42.3059 50.9025 43.0684 50.9026 43.8481C50.9013 44.8936 50.4856 45.8958 49.7464 46.635C49.0073 47.3743 48.0051 47.7903 46.9597 47.7915ZM45.9495 42.3367C46.2486 42.137 46.6001 42.0303 46.9597 42.0303C47.4417 42.031 47.9037 42.2227 48.2445 42.5635C48.5853 42.9043 48.777 43.3662 48.7776 43.8481C48.7776 44.2078 48.6711 44.5593 48.4713 44.8584C48.2715 45.1575 47.9876 45.3906 47.6554 45.5281C47.3231 45.6658 46.9576 45.7019 46.6048 45.6316C46.2521 45.5615 45.9281 45.3884 45.6739 45.134C45.4196 44.8799 45.2464 44.5559 45.1763 44.2031C45.1061 43.8503 45.1421 43.4849 45.2798 43.1526C45.4174 42.8203 45.6505 42.5364 45.9495 42.3367ZM40.5954 48.9854L31.9561 48.9854C32.6071 51.5432 33.9026 53.8916 35.719 55.8064C37.5354 57.7214 39.8122 59.1392 42.3321 59.9243L42.3321 50.5955C41.6777 50.1465 41.0926 49.604 40.5954 48.9854ZM51.5869 59.8413L51.5869 50.5955C52.2415 50.1467 52.8268 49.6042 53.324 48.9854L61.7278 48.9854C61.0827 51.4998 59.8159 53.8115 58.0439 55.7085C56.2719 57.6055 54.0515 59.0266 51.5869 59.8413Z" fill="url(#paint_linear_1_51_0)" fill-opacity="1.000000" fill-rule="evenodd"/>
		<path id="Vector" d="M50.4843 24.876C50.4073 23.7654 50.0546 22.6914 49.4581 21.7517C50.3485 21.5425 51.1439 21.043 51.7189 20.3318C52.294 19.6206 52.616 18.7383 52.6342 17.8237C52.6055 16.7141 52.1382 15.6611 51.3346 14.8955C50.5309 14.1299 49.4566 13.7139 48.3469 13.7388C47.7702 13.7371 47.1989 13.8499 46.666 14.0701C46.1331 14.2905 45.6491 14.6143 45.2421 15.0227L43.9796 8.71265C43.5853 6.96777 42.6009 5.41211 41.1927 4.30884C39.7845 3.20532 38.0387 2.62183 36.25 2.65625L17.4467 2.65625C15.658 2.62183 13.9122 3.20532 12.504 4.30884C11.0958 5.41211 10.1115 6.96777 9.7171 8.71265L8.45467 15.0227C8.04758 14.6143 7.56361 14.2905 7.03071 14.0701C6.4978 13.8499 5.92653 13.7371 5.34985 13.7388C4.24013 13.7139 3.16576 14.1296 2.36213 14.8955C1.55851 15.6611 1.09116 16.7141 1.0625 17.8237C1.08071 18.7383 1.40273 19.6206 1.9778 20.3318C2.55286 21.043 3.34825 21.5425 4.23859 21.7517C3.64201 22.6914 3.28931 23.7654 3.2124 24.876L3.2124 34.0408C2.73705 34.5496 2.42106 35.1865 2.30338 35.873C2.1857 36.5593 2.27148 37.2651 2.55016 37.9033C2.82883 38.5415 3.28822 39.0842 3.87163 39.4644C4.45505 39.8445 5.137 40.0457 5.83337 40.043L6.43725 40.043L6.43725 42.2463C6.43869 43.532 6.95006 44.7646 7.85915 45.6736C8.76825 46.5828 10.0008 47.094 11.2865 47.0955L15.5376 47.0955C16.8231 47.094 18.0556 46.5825 18.9646 45.6736C19.8736 44.7644 20.3848 43.5317 20.3862 42.2463L20.3862 40.043L33.3105 40.043L33.3105 42.2463C33.3119 43.532 33.8232 44.7644 34.7322 45.6736C35.6412 46.5825 36.8736 47.094 38.1592 47.0955L42.4103 47.0955C43.6959 47.094 44.9285 46.5828 45.8376 45.6736C46.7467 44.7646 47.2581 43.532 47.2595 42.2463L47.2595 40.043L47.8634 40.043C48.5598 40.0457 49.2417 39.8445 49.8251 39.4644C50.4086 39.0842 50.868 38.5415 51.1466 37.9033C51.4253 37.2651 51.5111 36.5593 51.3934 35.873C51.2757 35.1865 50.9597 34.5496 50.4844 34.0408L50.4843 24.876ZM48.3469 15.8638C48.893 15.8389 49.4268 16.031 49.8319 16.3982C50.237 16.7654 50.4805 17.2778 50.5092 17.8237C50.4564 18.3606 50.2057 18.8586 49.8061 19.2209C49.4064 19.583 48.8863 19.7837 48.3469 19.7837C47.8074 19.7837 47.2873 19.583 46.8877 19.2209C46.488 18.8586 46.2374 18.3606 46.1845 17.8237C46.2133 17.2778 46.4568 16.7654 46.8618 16.3982C47.2669 16.031 47.8007 15.8389 48.3469 15.8638ZM48.3593 25.9385L48.3593 28.8508L43.341 28.8508C42.9554 28.8499 42.586 28.696 42.3138 28.4231C42.0415 28.1499 41.8886 27.7803 41.8886 27.3945C41.8886 27.009 42.0415 26.6392 42.3138 26.3662C42.586 26.0933 42.9554 25.9395 43.341 25.9385L48.3593 25.9385ZM11.8006 9.12988C12.098 7.86621 12.8219 6.74365 13.8504 5.95142C14.8789 5.15942 16.149 4.74609 17.4467 4.78125L36.25 4.78125C37.5477 4.74609 38.8179 5.15942 39.8464 5.95142C40.8749 6.74365 41.5988 7.86621 41.8962 9.12988L43.8261 18.7759L9.87062 18.7759L11.8006 9.12988ZM9.66678 20.9009L44.0299 20.9009C44.9269 20.9038 45.8008 21.1858 46.5303 21.7075C47.2598 22.2295 47.8089 22.9653 48.1014 23.8135L43.341 23.8135C42.3922 23.8149 41.4829 24.1931 40.8126 24.8645C40.1423 25.5359 39.7659 26.4458 39.7659 27.3945C39.7659 28.3433 40.1423 29.2534 40.8126 29.9248C41.4829 30.5962 42.3922 30.9744 43.341 30.9758L48.3593 30.9758L48.3593 32.8809L5.3374 32.8809L5.3374 30.9758L10.3557 30.9758C10.8266 30.9768 11.2929 30.8848 11.7281 30.7051C12.1633 30.5254 12.5589 30.2617 12.8921 29.9292C13.2253 29.5964 13.4896 29.2014 13.67 28.7666C13.8503 28.3315 13.9432 27.8655 13.9432 27.3945C13.9432 26.9238 13.8503 26.4575 13.67 26.0227C13.4896 25.5879 13.2253 25.1929 12.8921 24.8601C12.5589 24.5276 12.1633 24.2639 11.7281 24.0842C11.2929 23.9045 10.8266 23.8125 10.3557 23.8135L5.59525 23.8135C5.88776 22.9653 6.43687 22.2295 7.1664 21.7075C7.89595 21.1858 8.76979 20.9038 9.66678 20.9009ZM5.3374 28.8508L5.3374 25.9385L10.3557 25.9385C10.5473 25.9377 10.7371 25.9751 10.9142 26.0481C11.0914 26.1211 11.2524 26.2283 11.388 26.3635C11.5237 26.4988 11.6313 26.6594 11.7047 26.8364C11.7782 27.0134 11.8159 27.2031 11.8159 27.3945C11.8159 27.5862 11.7782 27.7759 11.7047 27.9529C11.6313 28.1299 11.5237 28.2905 11.388 28.4258C11.2524 28.561 11.0914 28.6682 10.9142 28.7412C10.7371 28.8142 10.5473 28.8513 10.3557 28.8508L5.3374 28.8508ZM3.1875 17.8237C3.21627 17.2778 3.45974 16.7654 3.86481 16.3982C4.26989 16.031 4.8037 15.8389 5.34985 15.8638C5.89601 15.8389 6.42982 16.031 6.8349 16.3982C7.23997 16.7654 7.48344 17.2778 7.51221 17.8237C7.48341 18.3696 7.23991 18.8821 6.83483 19.2493C6.42975 19.6162 5.89595 19.8083 5.34985 19.7834C4.80376 19.8083 4.26997 19.6162 3.86489 19.2493C3.45982 18.8821 3.21632 18.3696 3.1875 17.8237ZM18.2612 42.2463C18.2604 42.9685 17.9732 43.6609 17.4626 44.1716C16.952 44.6824 16.2597 44.9697 15.5375 44.9705L11.2864 44.9705C10.5642 44.9697 9.87178 44.6824 9.36107 44.1716C8.85037 43.6609 8.56306 42.9685 8.56219 42.2463L8.56219 40.043L18.2612 40.043L18.2612 42.2463ZM45.1344 42.2463C45.1336 42.9685 44.8463 43.6609 44.3356 44.1716C43.8249 44.6824 43.1324 44.9697 42.4102 44.9705L38.1591 44.9705C37.437 44.9697 36.7446 44.6824 36.234 44.1716C35.7234 43.6609 35.4362 42.9685 35.4354 42.2463L35.4354 40.043L45.1344 40.043L45.1344 42.2463ZM47.8633 37.918L5.83337 37.918C5.44721 37.918 5.07687 37.7646 4.80382 37.4915C4.53076 37.2185 4.37737 36.8481 4.37737 36.4619C4.37737 36.0757 4.53076 35.7056 4.80382 35.4324C5.07687 35.1594 5.44721 35.0059 5.83337 35.0059L47.8633 35.0059C48.2495 35.0059 48.6198 35.1594 48.8929 35.4324C49.166 35.7056 49.3194 36.0757 49.3194 36.4619C49.3194 36.8481 49.166 37.2185 48.8929 37.4915C48.6198 37.7646 48.2495 37.918 47.8633 37.918Z" fill="#000000" fill-opacity="1.000000" fill-rule="nonzero"/>
		<path id="Vector" d="M18.7867 28.9609L34.9105 28.9609C35.1923 28.9609 35.4625 28.8489 35.6618 28.6497C35.8611 28.4504 35.973 28.1802 35.973 27.8984C35.973 27.6167 35.8611 27.3464 35.6618 27.1472C35.4625 26.948 35.1923 26.8359 34.9105 26.8359L18.7867 26.8359C18.5049 26.8359 18.2347 26.948 18.0354 27.1472C17.8362 27.3464 17.7242 27.6167 17.7242 27.8984C17.7242 28.1802 17.8362 28.4504 18.0354 28.6497C18.2347 28.8489 18.5049 28.9609 18.7867 28.9609Z" fill="#000000" fill-opacity="1.000000" fill-rule="nonzero"/>
	</g>
</svg>
