<svg width="42" height="42" viewBox="0 0 42 42" fill="none" xmlns="http://www.w3.org/2000/svg">
<rect width="42" height="42" rx="21" fill="url(#paint0_linear_1_31)"/>
<g clip-path="url(#clip0_1_31)">
<path d="M21.0041 14.8379C17.6011 14.8379 14.8461 17.5959 14.8461 20.9959C14.8461 24.3989 17.6041 27.1539 21.0041 27.1539C24.4071 27.1539 27.1621 24.3959 27.1621 20.9959C27.1621 17.5929 24.4041 14.8379 21.0041 14.8379ZM21.0041 24.9929C18.7951 24.9929 17.0071 23.2039 17.0071 20.9959C17.0071 18.7879 18.7961 16.9989 21.0041 16.9989C23.2121 16.9989 25.0011 18.7879 25.0011 20.9959C25.0021 23.2039 23.2131 24.9929 21.0041 24.9929Z" fill="white"/>
<path d="M25.9475 9.07734C23.7395 8.97434 18.2705 8.97934 16.0605 9.07734C14.1185 9.16834 12.4055 9.63734 11.0245 11.0183C8.71649 13.3263 9.01149 16.4363 9.01149 20.9973C9.01149 25.6653 8.75149 28.7033 11.0245 30.9763C13.3415 33.2923 16.4965 32.9893 21.0035 32.9893C25.6275 32.9893 27.2235 32.9923 28.8585 32.3593C31.0815 31.4963 32.7595 29.5093 32.9235 25.9403C33.0275 23.7313 33.0215 18.2633 32.9235 16.0533C32.7255 11.8403 30.4645 9.28534 25.9475 9.07734ZM29.4425 29.4493C27.9295 30.9623 25.8305 30.8273 20.9745 30.8273C15.9745 30.8273 13.9695 30.9013 12.5065 29.4343C10.8215 27.7573 11.1265 25.0643 11.1265 20.9813C11.1265 15.4563 10.5595 11.4773 16.1045 11.1933C17.3785 11.1483 17.7535 11.1333 20.9605 11.1333L21.0055 11.1633C26.3345 11.1633 30.5155 10.6053 30.7665 16.1493C30.8235 17.4143 30.8365 17.7943 30.8365 20.9963C30.8355 25.9383 30.9295 27.9553 29.4425 29.4493Z" fill="white"/>
<path d="M27.4062 16.034C28.2009 16.034 28.8452 15.3897 28.8452 14.595C28.8452 13.8003 28.2009 13.156 27.4062 13.156C26.6114 13.156 25.9672 13.8003 25.9672 14.595C25.9672 15.3897 26.6114 16.034 27.4062 16.034Z" fill="white"/>
</g>
<defs>
<linearGradient id="paint0_linear_1_31" x1="39" y1="-6.125" x2="-12.8683" y2="27.2531" gradientUnits="userSpaceOnUse">
<stop stop-color="#A831BF"/>
<stop offset="0.510417" stop-color="#F14C59"/>
<stop offset="1" stop-color="#FFBC4F"/>
</linearGradient>
<clipPath id="clip0_1_31">
<rect width="24" height="24" fill="white" transform="translate(9 9)"/>
</clipPath>
</defs>
</svg>
