<svg width="20" height="20" viewBox="0 0 20 20" fill="none" xmlns="http://www.w3.org/2000/svg">
  <path fill-rule="evenodd" clip-rule="evenodd" d="M10 20C15.5228 20 20 15.5228 20 10C20 4.47715 15.5228 0 10 0C4.47715 0 0 4.47715 0 10C0 15.5228 4.47715 20 10 20ZM15.5588 7.50027C15.8351 7.19167 15.8089 6.71752 15.5003 6.44123C15.1917 6.16493 14.7175 6.19113 14.4412 6.49973L11.0721 10.2629C10.3894 11.0254 9.9296 11.5363 9.53652 11.8667C9.16207 12.1814 8.94213 12.25 8.75 12.25C8.55787 12.25 8.33794 12.1814 7.96348 11.8667C7.5704 11.5363 7.11064 11.0254 6.42794 10.2629L5.55877 9.29209C5.28248 8.98349 4.80833 8.9573 4.49973 9.23359C4.19113 9.50988 4.16493 9.98403 4.44123 10.2926L5.34753 11.3049C5.98338 12.0152 6.51374 12.6076 6.99835 13.0149C7.51099 13.4458 8.06393 13.75 8.75 13.75C9.43607 13.75 9.98901 13.4458 10.5016 13.0149C10.9863 12.6076 11.5166 12.0152 12.1525 11.3049L15.5588 7.50027Z" fill="url(#paint0_linear_1_204)" />
  <path d="M15.5003 6.44123C15.8089 6.71752 15.8351 7.19167 15.5588 7.50027L12.1525 11.3049C11.5166 12.0152 10.9863 12.6076 10.5016 13.0149C9.98901 13.4458 9.43607 13.75 8.75 13.75C8.06393 13.75 7.51099 13.4458 6.99835 13.0149C6.51374 12.6076 5.98338 12.0152 5.34753 11.3049L4.44123 10.2926C4.16493 9.98403 4.19113 9.50988 4.49973 9.23359C4.80833 8.9573 5.28248 8.98349 5.55877 9.29209L6.42794 10.2629C7.11064 11.0254 7.5704 11.5363 7.96348 11.8667C8.33794 12.1814 8.55787 12.25 8.75 12.25C8.94213 12.25 9.16207 12.1814 9.53652 11.8667C9.9296 11.5363 10.3894 11.0254 11.0721 10.2629L14.4412 6.49973C14.7175 6.19113 15.1917 6.16493 15.5003 6.44123Z" fill="black" />
  <defs>
    <linearGradient id="paint0_linear_1_204" x1="10" y1="0" x2="10" y2="20" gradientUnits="userSpaceOnUse">
      <stop stop-color="#FDEA44" />
      <stop offset="1" stop-color="#FDB344" />
    </linearGradient>
  </defs>
</svg>
