<svg width="42" height="42" viewBox="0 0 42 42" fill="none" xmlns="http://www.w3.org/2000/svg">
<rect width="42" height="42" rx="21" fill="url(#paint0_linear_1_36)"/>
<path d="M31.7747 15.3762C31.5154 14.4123 30.7554 13.6524 29.7916 13.3929C28.0309 12.9111 20.988 12.9111 20.988 12.9111C20.988 12.9111 13.9454 12.9111 12.1847 13.3746C11.2394 13.6339 10.4609 14.4124 10.2016 15.3762C9.73828 17.1367 9.73828 20.7879 9.73828 20.7879C9.73828 20.7879 9.73828 24.4575 10.2016 26.1996C10.4612 27.1634 11.2209 27.9233 12.1848 28.1828C13.9639 28.6647 20.9883 28.6647 20.9883 28.6647C20.9883 28.6647 28.0309 28.6647 29.7916 28.2012C30.7555 27.9418 31.5154 27.182 31.7749 26.2182C32.2381 24.4575 32.2381 20.8065 32.2381 20.8065C32.2381 20.8065 32.2567 17.1367 31.7747 15.3762ZM18.7457 24.161V17.4148L24.6022 20.7879L18.7457 24.161Z" fill="white"/>
<defs>
<linearGradient id="paint0_linear_1_36" x1="42.7692" y1="4.9" x2="-6.38991" y2="23.6899" gradientUnits="userSpaceOnUse">
<stop stop-color="#EC5656"/>
<stop offset="1" stop-color="#E24040"/>
</linearGradient>
</defs>
</svg>
