<svg width="68.000000" height="68.000000" viewBox="0 0 68 68" fill="none" xmlns="http://www.w3.org/2000/svg" xmlns:xlink="http://www.w3.org/1999/xlink">
	<desc>
			Created with Pixso.
	</desc>
	<defs>
		<clipPath id="clip1_57">
			<rect id="fi_3164095" width="68.000000" height="68.000000" fill="white" fill-opacity="0"/>
		</clipPath>
		<linearGradient id="paint_linear_1_59_0" x1="43.562500" y1="32.979492" x2="43.562500" y2="66.940941" gradientUnits="userSpaceOnUse">
			<stop stop-color="#FDEA44"/>
			<stop offset="1.000000" stop-color="#FDB344"/>
		</linearGradient>
	</defs>
	<rect id="fi_3164095" width="68.000000" height="68.000000" fill="#FFFFFF" fill-opacity="0"/>
	<g clip-path="url(#clip1_57)">
		<path id="Vector" d="M58.3654 57.3242C56.3735 59.3162 55.2531 62.0168 55.25 64.8337L55.25 66.9204C55.0726 66.9238 54.8962 66.9375 54.7188 66.9375C50.553 67.0127 46.4592 65.845 42.9601 63.5833C39.6628 61.4646 35.7905 60.4189 31.875 60.5901L31.875 60.5837C31.8719 57.7668 30.7515 55.0662 28.7596 53.0742C26.7677 51.0823 24.067 49.9619 21.25 49.9587L20.1875 49.9587L20.1875 45.7087L21.25 45.7087C24.0669 45.7053 26.7675 44.585 28.7593 42.593C30.7511 40.6013 31.8716 37.9006 31.875 35.0837L31.875 32.9971C36.2177 32.8201 40.5093 33.9866 44.1649 36.3376C47.4626 38.4546 51.335 39.4988 55.25 39.3264L55.25 39.3337C55.2534 42.1506 56.3739 44.8513 58.3657 46.843C60.3575 48.835 63.0581 49.9553 65.875 49.9587L66.9375 49.9587L66.9375 54.2087L65.875 54.2087C63.058 54.2119 60.3573 55.3323 58.3654 57.3242ZM27.2576 41.0913C25.6641 42.6848 23.5035 43.5813 21.25 43.5837L20.1875 43.5837L20.1875 37.2087C20.188 37.0374 20.23 36.8684 20.31 36.7168C20.3899 36.5649 20.5054 36.4348 20.6465 36.3374C23.3741 34.5432 26.4997 33.4446 29.75 33.1372L29.75 35.0837C29.7475 37.3374 28.8511 39.4978 27.2576 41.0913ZM57.375 39.3337C57.3775 41.5874 58.2739 43.7478 59.8674 45.3413C61.4609 46.9348 63.6215 47.8313 65.875 47.8337L66.9375 47.8337L66.9375 37.2087C66.9376 37.0151 66.8846 36.8252 66.7845 36.6592C66.6844 36.4934 66.541 36.3582 66.3695 36.2681C66.1981 36.178 66.0053 36.1365 65.812 36.1479C65.6186 36.1594 65.4321 36.2234 65.2726 36.3333C62.9036 37.8955 60.1961 38.8699 57.375 39.1755L57.375 39.3337ZM39.4304 56.1428C40.6536 56.96 42.0915 57.3962 43.5625 57.3962C45.5343 57.3938 47.4246 56.6094 48.8188 55.2151C50.2131 53.8208 50.9975 51.9307 51 49.9587C51 48.4878 50.5638 47.0498 49.7466 45.8267C48.9293 44.6035 47.7678 43.6504 46.4087 43.0874C45.0497 42.5244 43.5543 42.3772 42.1115 42.6641C40.6688 42.9512 39.3436 43.6594 38.3034 44.6997C37.2632 45.7397 36.5549 47.0649 36.2679 48.5078C35.981 49.9504 36.1282 51.446 36.6912 52.8049C37.2541 54.1641 38.2073 55.3257 39.4304 56.1428ZM43.5625 55.2712C46.4965 55.2712 48.875 52.8928 48.875 49.9587C48.875 47.0247 46.4965 44.6462 43.5625 44.6462C40.6285 44.6462 38.25 47.0247 38.25 49.9587C38.25 52.8928 40.6285 55.2712 43.5625 55.2712ZM27.2576 54.5762C28.8511 56.1697 29.7475 58.3303 29.75 60.5837L29.75 60.741C26.9292 61.0466 24.222 62.021 21.8535 63.5833C21.694 63.6934 21.5075 63.7576 21.3141 63.7693C21.1207 63.781 20.9278 63.7395 20.7562 63.6494C20.5847 63.5596 20.441 63.4243 20.3408 63.2583C20.2405 63.0925 20.1875 62.9026 20.1875 62.7087L20.1875 52.0837L21.25 52.0837C23.5035 52.0864 25.6641 52.9827 27.2576 54.5762ZM59.8674 58.8262C61.4609 57.2327 63.6215 56.3364 65.875 56.3337L66.9375 56.3337L66.9375 62.7087C66.9374 62.8809 66.8954 63.0503 66.8153 63.2026C66.7352 63.355 66.6192 63.4856 66.4774 63.5833C63.7501 65.3765 60.6248 66.4739 57.375 66.7793L57.375 64.8337C57.3775 62.5803 58.2739 60.4197 59.8674 58.8262Z" fill="url(#paint_linear_1_59_0)" fill-opacity="1.000000" fill-rule="evenodd"/>
		<path id="Vector" d="M28.6875 27.1851L28.6875 14.875C28.6875 14.5933 28.5756 14.323 28.3763 14.1238C28.1771 13.9246 27.9068 13.8125 27.625 13.8125C27.3432 13.8125 27.0729 13.9246 26.8737 14.1238C26.6744 14.323 26.5625 14.5933 26.5625 14.875L26.5625 27.625C26.5626 27.9067 26.6746 28.177 26.8738 28.3762L36.4363 37.9387C36.6367 38.1323 36.9051 38.2393 37.1837 38.2368C37.4623 38.2344 37.7288 38.1228 37.9257 37.9258C38.1227 37.7288 38.2345 37.4622 38.2369 37.1836C38.2393 36.905 38.1322 36.6367 37.9387 36.4363L28.6875 27.1851Z" fill="#000000" fill-opacity="1.000000" fill-rule="nonzero"/>
		<path id="Vector" d="M27.625 1.0625C22.3715 1.0625 17.2358 2.62036 12.8677 5.53906C8.49951 8.45776 5.09491 12.6062 3.08447 17.46C1.07404 22.3137 0.547974 27.6545 1.57288 32.8071C2.59784 37.9597 5.12769 42.6926 8.84247 46.4075C12.5573 50.1223 17.2903 52.6521 22.4429 53.677C27.5955 54.7021 32.9364 54.176 37.79 52.1655C42.6437 50.155 46.7922 46.7505 49.7109 42.3823C52.6296 38.0142 54.1875 32.8787 54.1875 27.625C54.1796 20.5825 51.3785 13.8308 46.3989 8.85107C41.4191 3.87134 34.6674 1.07031 27.625 1.0625ZM27.625 52.0625C22.7917 52.0625 18.067 50.6292 14.0483 47.9441C10.0295 45.2588 6.89734 41.4421 5.04773 36.9768C3.19806 32.5115 2.71417 27.5979 3.65704 22.8574C4.59998 18.1172 6.92743 13.7627 10.3451 10.345C13.7628 6.92749 18.1171 4.6001 22.8575 3.65698C27.5979 2.71411 32.5115 3.198 36.9768 5.04761C41.4422 6.89722 45.2589 10.0295 47.944 14.0483C50.6293 18.0669 52.0625 22.7917 52.0625 27.625C52.0552 34.104 49.4782 40.3154 44.8969 44.8967C40.3156 49.4783 34.104 52.0552 27.625 52.0625Z" fill="#000000" fill-opacity="1.000000" fill-rule="nonzero"/>
		<path id="Vector" d="M27.625 5.3125C23.212 5.3125 18.8981 6.62109 15.2288 9.07275C11.5596 11.5247 8.69971 15.0093 7.01093 19.0864C5.32214 23.1636 4.88031 27.6497 5.74121 31.978C6.60217 36.3062 8.72723 40.282 11.8477 43.4023C14.9681 46.5227 18.9438 48.6479 23.272 49.5088C27.6003 50.3696 32.0865 49.9277 36.1636 48.239C40.2407 46.5503 43.7255 43.6904 46.1772 40.0212C48.6289 36.3518 49.9375 32.0381 49.9375 27.625C49.9308 21.7095 47.5778 16.0381 43.3949 11.8552C39.2119 7.67212 33.5406 5.31934 27.625 5.3125ZM27.625 47.8125C23.6323 47.8125 19.7292 46.6284 16.4094 44.4104C13.0896 42.1921 10.5021 39.0393 8.97418 35.3503C7.44623 31.6616 7.04645 27.6025 7.82538 23.6865C8.60437 19.7705 10.527 16.1736 13.3503 13.3503C16.1736 10.5271 19.7706 8.60425 23.6866 7.82544C27.6026 7.04639 31.6616 7.44629 35.3504 8.97412C39.0392 10.5022 42.1921 13.0896 44.4103 16.4094C46.6285 19.7292 47.8125 23.6323 47.8125 27.625C47.8066 32.9773 45.6778 38.1086 41.8932 41.8933C38.1086 45.6777 32.9772 47.8066 27.625 47.8125Z" fill="#000000" fill-opacity="1.000000" fill-rule="nonzero"/>
	</g>
</svg>
