<svg width="42" height="42" viewBox="0 0 42 42" fill="none" xmlns="http://www.w3.org/2000/svg">
<path d="M21 0C32.6008 0 42 9.39919 42 21C42 32.6008 32.6008 42 21 42C9.39919 42 0 32.6008 0 21C0 9.39919 9.39919 0 21 0ZM31.246 14.3952C31.5847 13.0403 30.7379 12.4476 29.8064 12.7863L9.56855 20.5766C8.21371 21.0847 8.21371 21.9315 9.31452 22.2702L14.4798 23.879L26.504 16.2581C27.0968 15.9194 27.6048 16.1734 27.1814 16.5121L17.4435 25.3185L17.1048 30.6532C17.6129 30.6532 17.8669 30.3992 18.121 30.1452L20.6613 27.6895L25.9113 31.5847C26.9274 32.0927 27.6048 31.8387 27.8589 30.6532L31.246 14.3952Z" fill="#5EA3F4"/>
<path d="M31.246 14.3952C31.5847 13.0403 30.7379 12.4476 29.8064 12.7863L9.56855 20.5766C8.21371 21.0847 8.21371 21.9315 9.31452 22.2702L14.4798 23.879L26.504 16.2581C27.0968 15.9194 27.6048 16.1734 27.1814 16.5121L17.4435 25.3185L17.1048 30.6532C17.6129 30.6532 17.8669 30.3992 18.121 30.1452L20.6613 27.6895L25.9113 31.5847C26.9274 32.0927 27.6048 31.8387 27.8589 30.6532L31.246 14.3952Z" fill="white"/>
</svg>
