<svg width="42" height="42" viewBox="0 0 42 42" fill="none" xmlns="http://www.w3.org/2000/svg">
<path d="M21 42C32.598 42 42 32.598 42 21C42 9.40202 32.598 0 21 0C9.40202 0 0 9.40202 0 21C0 32.598 9.40202 42 21 42Z" fill="#25D366"/>
<path d="M21.0031 8.75H20.9969C14.2426 8.75 8.75 14.2441 8.75 21C8.75 23.6797 9.61362 26.1634 11.0821 28.18L9.55544 32.7309L14.264 31.2257C16.2011 32.5089 18.5117 33.25 21.0031 33.25C27.7574 33.25 33.25 27.7543 33.25 21C33.25 14.2457 27.7574 8.75 21.0031 8.75ZM28.131 26.0485C27.8355 26.8831 26.6626 27.5752 25.727 27.7773C25.0869 27.9136 24.2508 28.0223 21.4364 26.8555C17.8364 25.3641 15.5181 21.7059 15.3374 21.4686C15.1644 21.2312 13.8828 19.5315 13.8828 17.7737C13.8828 16.0158 14.7755 15.1598 15.1353 14.7923C15.4308 14.4907 15.9193 14.3528 16.3879 14.3528C16.5395 14.3528 16.6758 14.3605 16.7983 14.3666C17.1581 14.3819 17.3388 14.4034 17.5761 14.9715C17.8717 15.6835 18.5913 17.4414 18.6771 17.6221C18.7644 17.8028 18.8517 18.0478 18.7292 18.2851C18.6143 18.5301 18.5132 18.6388 18.3326 18.8471C18.1519 19.0553 17.9804 19.2146 17.7997 19.4381C17.6343 19.6326 17.4475 19.8408 17.6558 20.2007C17.864 20.5529 18.5837 21.7273 19.6433 22.6706C21.0107 23.8879 22.1193 24.2769 22.5159 24.4423C22.8115 24.5648 23.1637 24.5357 23.3796 24.306C23.6537 24.0104 23.9921 23.5204 24.3366 23.0381C24.5816 22.692 24.8909 22.6492 25.2155 22.7717C25.5463 22.8865 27.2965 23.7517 27.6563 23.9308C28.0162 24.1115 28.2535 24.1973 28.3408 24.3488C28.4266 24.5004 28.4266 25.2125 28.131 26.0485Z" fill="white"/>
</svg>
