<svg width="22" height="14" viewBox="0 0 22 14" fill="none" xmlns="http://www.w3.org/2000/svg">
  <path d="M5.71739 0.545153C6.06062 0.204972 6.61463 0.207444 6.95481 0.550674C7.29499 0.893904 7.29252 1.44792 6.94929 1.7881L4.89249 3.82662C4.05775 4.65395 3.48515 5.22333 3.0977 5.70578C2.97178 5.86257 2.87354 6.0006 2.79726 6.12496L20.3333 6.12496C20.8166 6.12496 21.2083 6.51671 21.2083 6.99996C21.2083 7.48321 20.8166 7.87496 20.3333 7.87496L2.79726 7.87496C2.87354 7.99932 2.97178 8.13735 3.0977 8.29414C3.48515 8.77659 4.05775 9.34597 4.89249 10.1733L6.94929 12.2118C7.29252 12.552 7.29499 13.106 6.95481 13.4492C6.61463 13.7925 6.06062 13.7949 5.71739 13.4548L3.62352 11.3795C2.83489 10.5979 2.19034 9.95911 1.73324 9.38992C1.2579 8.79804 0.913815 8.19728 0.821899 7.47615C0.801748 7.31805 0.791672 7.159 0.791672 6.99996C0.791672 6.84091 0.801748 6.68187 0.821899 6.52377C0.913815 5.80264 1.2579 5.20188 1.73324 4.61C2.19035 4.04081 2.8349 3.402 3.62354 2.62039L5.71739 0.545153Z" fill="black" />
</svg>

