<?xml version="1.0" encoding="utf-8"?><svg viewBox="0 0 22 14" xmlns="http://www.w3.org/2000/svg" xmlns:xlink="http://www.w3.org/1999/xlink"><style>:root>svg{display:none}:root>svg:target{display:block}</style><svg viewBox="0 0 22 14" id="arrow" xmlns="http://www.w3.org/2000/svg"><path d="M5.717.545A.875.875 0 116.95 1.788L4.892 3.827c-.834.827-1.407 1.396-1.794 1.879a4.11 4.11 0 00-.3.419h17.535a.875.875 0 110 1.75H2.797c.077.124.175.262.3.42.388.482.96 1.051 1.795 1.878l2.057 2.039a.875.875 0 01-1.232 1.243L3.624 11.38c-.79-.782-1.434-1.42-1.89-1.99-.476-.592-.82-1.193-.912-1.914a3.766 3.766 0 010-.952c.092-.721.436-1.322.911-1.914.457-.57 1.102-1.208 1.89-1.99L5.718.545z"/></svg></svg>